/* XPM */
static char *_x8_lcd[] = {
/* columns rows colors chars-per-pixel */
"40 4 10 1 ",
"  c #202020",
". c #440000",
"1 c #00ff00",
"2 c #00bb00",
"3 c #00aa00",
"4 c #888800",
"5 c #aa0000",
"6 c #bb0000",
"7 c #ff0000",
"8 c #000000",
/* pixels */
"1111 2222 3333 4444 5555 6666 7777 8888 ",
"1111 2222 3333 4444 5555 6666 7777 8888 ",
"1111 2222 3333 4444 5555 6666 7777 8888 ",
"                                        ",
};
